<svg width="469" height="368" viewBox="0 0 469 368" fill="none" xmlns="http://www.w3.org/2000/svg">
<g clip-path="url(#clip0)">
<path opacity="0.24" d="M64.7703 59.6723C56.7587 79.8513 55.353 101.89 51.2525 123.187C46.4843 147.914 38.094 171.806 26.3509 194.097C18.0771 209.787 8.08445 224.837 3.29933 241.9C-0.82301 256.602 -0.859426 272.277 1.94464 287.284C5.33101 305.276 12.6657 322.297 23.4231 337.129C29.2497 345.119 36.329 352.673 45.4259 356.654C52.1411 359.559 59.5627 360.438 66.8533 361.187C164.786 371.232 263.545 370.165 361.236 358.005C373.909 356.429 386.728 354.62 398.534 349.775C415.628 342.765 429.51 329.879 442.962 317.255C451.323 309.432 459.896 301.311 464.564 290.865C471.6 275.139 468.592 256.609 461.964 240.745C455.337 224.881 445.351 210.564 437.929 195.019C428.138 174.404 423.001 151.897 422.882 129.085C422.788 109.989 426.116 90.1732 419.474 72.2606C412.525 53.5344 395.737 40.1762 378.258 30.4427C349.803 14.6449 317.943 5.93562 285.388 5.05562C239.037 3.84983 193.932 18.4356 147.61 17.622C109.701 16.9538 81.1941 18.1087 64.7703 59.6723Z" fill="#5DADE2"/>
<path opacity="0.24" d="M65.1417 59.6723C57.1738 79.8513 55.7244 101.89 51.6312 123.187C46.8638 147.915 38.4708 171.808 26.7224 194.097C18.4558 209.787 8.46317 224.837 3.67805 241.9C-0.444286 256.602 -0.480703 272.277 2.32336 287.284C5.70407 305.276 13.0366 322.298 23.7945 337.129C29.6211 345.119 36.7078 352.673 45.8046 356.654C52.5198 359.559 59.9342 360.438 67.232 361.187C165.165 371.232 263.924 370.165 361.615 358.005C374.288 356.429 387.107 354.62 398.906 349.775C416.007 342.765 429.889 329.879 443.334 317.255C451.695 309.432 460.267 301.311 464.936 290.865C471.972 275.139 468.964 256.609 462.336 240.745C455.708 224.881 445.723 210.564 438.301 195.019C428.501 174.415 423.352 151.919 423.217 129.115C423.123 110.018 426.458 90.2022 419.816 72.2896C412.868 53.5635 396.08 40.2053 378.6 30.4718C350.158 14.6703 318.312 5.95121 285.767 5.05562C239.416 3.84983 194.311 18.4356 147.989 17.622C110.058 16.9538 81.5655 18.1087 65.1417 59.6723Z" fill="#5DADE2"/>
<path opacity="0.46" d="M246.488 329.291C351.201 329.291 436.087 322.104 436.087 313.238C436.087 304.372 351.201 297.185 246.488 297.185C141.776 297.185 56.8898 304.372 56.8898 313.238C56.8898 322.104 141.776 329.291 246.488 329.291Z" fill="#5DADE2"/>
<path opacity="0.24" d="M375.395 73.5245H123.619V311.64H375.395V73.5245Z" fill="#5DADE2"/>
<path d="M366.342 72.769H114.566V310.885H366.342V72.769Z" fill="white"/>
<path d="M354.616 111.609H126.037V266.793H354.616V111.609Z" fill="#5DADE2"/>
<path d="M399.379 159.1C399.379 173.685 384.157 185.489 365.388 185.489C362.236 185.5 359.094 185.151 356.022 184.45L341.193 192.019L347.136 181.32C337.668 176.671 331.397 168.477 331.397 159.1C331.397 144.514 346.619 132.703 365.381 132.703C384.142 132.703 399.379 144.514 399.379 159.1Z" fill="#5DADE2"/>
<path d="M395.206 158.722C395.206 173.308 379.991 185.111 361.222 185.111C358.07 185.126 354.927 184.778 351.856 184.073L337.02 191.642L342.977 180.949C333.509 176.293 327.238 168.1 327.238 158.722C327.238 144.136 342.453 132.325 361.222 132.325C379.991 132.325 395.206 144.136 395.206 158.722Z" fill="url(#paint0_linear)"/>
<path d="M138.718 172.639V203.431C138.718 205.123 138.383 206.798 137.734 208.361C137.084 209.924 136.133 211.344 134.933 212.54C133.733 213.736 132.308 214.684 130.741 215.331C129.173 215.978 127.493 216.31 125.797 216.31H123.481V229.849L116.431 216.31H62.833C61.1372 216.31 59.458 215.976 57.8913 215.329C56.3245 214.682 54.901 213.733 53.7019 212.537C52.5028 211.341 51.5516 209.922 50.9026 208.359C50.2537 206.797 49.9197 205.122 49.9197 203.431V172.639C49.9187 170.948 50.2521 169.273 50.9007 167.71C51.5493 166.147 52.5005 164.727 53.6998 163.531C54.8991 162.335 56.323 161.386 57.8901 160.739C59.4573 160.092 61.1369 159.76 62.833 159.761H125.797C127.493 159.76 129.173 160.092 130.741 160.739C132.308 161.386 133.733 162.334 134.933 163.53C136.133 164.726 137.084 166.146 137.734 167.709C138.383 169.272 138.718 170.948 138.718 172.639Z" fill="#5DADE2"/>
<path d="M138.718 172.639V203.431C138.718 205.123 138.383 206.798 137.734 208.361C137.084 209.924 136.133 211.344 134.933 212.54C133.733 213.736 132.308 214.684 130.741 215.331C129.173 215.978 127.493 216.31 125.797 216.31H123.481V229.849L116.431 216.31H62.833C61.1372 216.31 59.458 215.976 57.8913 215.329C56.3245 214.682 54.901 213.733 53.7019 212.537C52.5028 211.341 51.5516 209.922 50.9026 208.359C50.2537 206.797 49.9197 205.122 49.9197 203.431V172.639C49.9187 170.948 50.2521 169.273 50.9007 167.71C51.5493 166.147 52.5005 164.727 53.6998 163.531C54.8991 162.335 56.323 161.386 57.8901 160.739C59.4573 160.092 61.1369 159.76 62.833 159.761H125.797C127.493 159.76 129.173 160.092 130.741 160.739C132.308 161.386 133.733 162.334 134.933 163.53C136.133 164.726 137.084 166.146 137.734 167.709C138.383 169.272 138.718 170.948 138.718 172.639Z" fill="url(#paint1_linear)"/>
<path d="M127.268 170.94H61.1068V174.63H127.268V170.94Z" fill="#5DADE2"/>
<path d="M127.268 180.673H61.1068V184.363H127.268V180.673Z" fill="#5DADE2"/>
<path d="M127.268 190.407H61.1068V194.097H127.268V190.407Z" fill="#5DADE2"/>
<path opacity="0.24" d="M143.204 277.231C143.204 277.231 137.166 269.328 131.507 276.853C125.848 284.379 144.333 293.408 144.333 293.408C144.333 293.408 157.538 283.965 156.023 278.357C154.508 272.749 146.234 271.21 143.204 277.231Z" fill="#5DADE2"/>
<path opacity="0.24" d="M143.204 277.231C143.204 277.231 137.166 269.328 131.507 276.853C125.848 284.379 144.333 293.408 144.333 293.408C144.333 293.408 157.538 283.965 156.023 278.357C154.508 272.749 146.234 271.21 143.204 277.231Z" fill="#5DADE2"/>
<path d="M303.524 194.823C303.524 194.823 297.486 186.92 291.827 194.445C286.168 201.971 304.653 211 304.653 211C304.653 211 317.857 201.593 316.342 195.949C314.827 190.305 306.539 188.823 303.524 194.823Z" fill="white"/>
<path opacity="0.24" d="M209.526 282.759C209.526 287.698 204.376 291.686 198.033 291.686C196.967 291.691 195.904 291.574 194.864 291.338L189.817 293.894L191.827 290.263C188.623 288.694 186.503 285.904 186.503 282.744C186.503 277.812 191.652 273.824 198.003 273.824C204.354 273.824 209.526 277.827 209.526 282.759Z" fill="#5DADE2"/>
<path opacity="0.24" d="M162.192 281.829L181.048 275.43L168.222 287.095L162.192 281.829Z" fill="#5DADE2"/>
<path opacity="0.24" d="M169.169 287.786L181.427 275.938L173.502 293.611L169.169 287.786Z" fill="#5DADE2"/>
<path opacity="0.24" d="M141.696 106.967C148.884 106.967 154.712 101.156 154.712 93.9867C154.712 86.8178 148.884 81.0062 141.696 81.0062C134.508 81.0062 128.681 86.8178 128.681 93.9867C128.681 101.156 134.508 106.967 141.696 106.967Z" fill="#5DADE2"/>
<path d="M312.759 93.5944C312.686 94.8801 312.621 96.2893 313.4 97.3135C315.439 96.1004 316.051 93.4782 316.313 91.132C316.822 86.4776 316.693 81.7757 315.927 77.1564C315.842 76.4114 315.622 75.688 315.279 75.0208C314.626 74.0655 313.7 73.3289 312.621 72.907C311.974 72.5504 311.248 72.3606 310.508 72.355C310.14 72.3624 309.783 72.4829 309.486 72.6999C309.189 72.917 308.966 73.2201 308.848 73.568C308.783 74.0193 308.835 74.4796 309.001 74.9046C309.333 76.4677 309.867 77.9815 310.588 79.4082C311.318 80.5536 311.857 81.8096 312.184 83.1272C312.932 86.5636 313.126 90.097 312.759 93.5944Z" fill="url(#paint2_linear)"/>
<path d="M284.937 76.6261C286.444 77.7883 288.418 78.1515 290.319 78.2823C291.011 78.3258 291.718 78.3476 292.417 78.3767C293.396 78.419 294.324 78.8245 295.02 79.5138C295.715 80.2031 296.127 81.1265 296.175 82.103C296.233 83.5558 296.262 85.0086 296.262 86.4613C296.262 89.9334 296.138 93.5581 297.668 96.6743C297.988 97.328 298.506 98.0181 299.234 98.0326C299.625 98.0078 299.996 97.8545 300.29 97.5968C301.218 96.819 301.861 95.7563 302.118 94.575C302.372 93.3991 302.477 92.196 302.431 90.994C302.431 86.396 302.031 81.7108 300.246 77.4687C300.041 76.9855 299.797 76.5191 299.518 76.0741C298.339 74.3764 296.554 73.1917 294.529 72.7617C292.523 72.3428 290.464 72.235 288.425 72.4421C287.457 72.5075 286.481 72.5874 285.512 72.6383C284.966 72.6383 282.934 72.3622 282.555 72.6383C281.783 73.2993 284.361 76.1757 284.937 76.6261Z" fill="url(#paint3_linear)"/>
<path d="M325.381 74.3089C325.592 78.8779 319.736 101.614 318.462 102.464C317.398 103.19 315.483 102.217 314.39 101.556C314.179 101.403 314.026 101.28 313.873 101.192C313.028 100.553 314.39 83.0909 314.39 83.0909C314.39 83.0909 314.82 77.1564 310.661 73.7061C306.015 69.8635 300.705 66.3187 301.069 63.5948C301.101 63.1863 301.273 62.8012 301.557 62.5052C303.888 59.7232 309.205 55.4884 311.994 57.544L320.13 63.987C320.135 64.006 320.135 64.0262 320.13 64.0452C320.188 64.1105 320.283 64.2268 320.435 64.3793C320.647 64.6553 320.982 65.0476 321.346 65.4979C322.33 66.8544 323.211 68.282 323.982 69.7691C324.736 71.1792 325.21 72.7204 325.381 74.3089Z" fill="#606161"/>
<path d="M313.757 70.9531C314.958 72.8707 315.119 72.1298 316 76.4881C316.881 80.8464 316 98.8607 315.031 100.764C314.88 101.072 314.661 101.343 314.39 101.556C314.179 101.403 314.026 101.28 313.873 101.192C313.028 100.553 314.39 83.0909 314.39 83.0909C314.39 83.0909 314.82 77.1564 310.661 73.706C310.661 73.706 311.295 69.7691 308.411 67.5318C306.13 65.9316 303.665 64.6098 301.069 63.5948C301.404 63.4713 306.408 57.5658 311.055 57.7837C315.272 57.9653 307.974 61.6989 313.757 70.9531Z" fill="url(#paint4_linear)"/>
<path d="M307.231 100.735C306.755 102.108 305.965 103.352 304.922 104.367C303.8 105.304 302.103 105.696 300.887 104.941C299.43 104.062 299.183 102.188 299.037 100.582C298.549 94.8946 298.52 84.994 298.032 79.3065C297.982 78.6667 297.691 78.0696 297.216 77.6358C296.49 77.0788 295.668 76.658 294.791 76.3937C293.065 75.8198 290.909 75.3695 289.299 74.3089C288.732 73.9493 288.238 73.486 287.843 72.9433C284.988 69.0427 283.924 61.1106 286.291 57.3261C286.605 56.7501 287.053 56.2571 287.596 55.8882C288.14 55.5193 288.763 55.2851 289.416 55.2051C293.546 54.6894 300.982 57.3842 302.715 61.1106C303.262 62.3236 303.502 63.6529 304.288 64.7425C305.658 66.6456 308.36 67.2267 309.693 69.1589C310.3 70.1758 310.673 71.3146 310.785 72.493C312.263 82.0533 311.032 91.8353 307.231 100.735Z" fill="#606161"/>
<path d="M297.974 76.2484C298.099 76.5268 298.158 76.8301 298.146 77.1349C298.135 77.4397 298.054 77.7378 297.908 78.0062C297.668 77.8827 297.457 77.7302 297.18 77.6067C296.393 77.1854 295.578 76.7569 294.755 76.3646C293.604 75.8489 292.388 75.3695 291.171 74.9118C290.538 74.7012 289.897 74.4905 289.263 74.2508C288.696 73.8912 288.201 73.4279 287.806 72.8852C284.951 68.9846 283.888 61.0525 286.255 57.268C288.564 57.4205 290.807 58.4811 292.905 59.4472C294.15 60.0573 295.388 60.6312 296.546 61.3285C297.333 61.7788 298.943 62.4471 297.697 63.326C296 64.5028 292.752 62.4181 291.448 64.3212C291.2 64.7646 291.074 65.266 291.084 65.7739C291.018 66.5003 290.96 67.2267 290.902 68.0112C290.819 68.6786 290.859 69.3554 291.018 70.0088C291.388 70.838 292.003 71.5348 292.781 72.0063C294.199 72.8692 295.568 73.8101 296.881 74.8247C297.334 75.2244 297.705 75.7079 297.974 76.2484Z" fill="url(#paint5_linear)"/>
<path d="M300.698 111.681C301.202 112.181 301.773 112.609 302.395 112.953L305.046 114.601C306 115.19 307.231 115.778 308.163 115.11C309.095 114.442 308.892 113.279 308.586 112.321C308.115 110.903 307.288 109.63 306.182 108.623C305.947 108.444 305.752 108.219 305.607 107.962C305.502 107.689 305.462 107.396 305.49 107.105V104.381C305.49 101.621 301.688 102.115 300.487 103.749C299.023 105.761 298.972 109.836 300.698 111.681Z" fill="#606161"/>
<path d="M313.99 108.289C314.646 109.306 315.607 110.092 316.736 110.534C317.818 111.046 318.944 111.459 320.1 111.769C320.335 111.868 320.59 111.909 320.844 111.888C321.098 111.866 321.343 111.783 321.557 111.645C321.74 111.441 321.861 111.189 321.907 110.919C322.099 110.057 322.079 109.162 321.847 108.31C321.614 107.458 321.177 106.676 320.574 106.03C320.028 105.561 319.539 105.03 319.117 104.447C318.6 103.539 318.709 102.427 318.615 101.389C318.411 99.1077 314.769 99.7033 313.888 101.178C313.007 102.652 313.211 106.858 313.99 108.289Z" fill="#606161"/>
<path d="M285.396 55.0671C285.332 55.9954 285.556 56.9208 286.037 57.7184C286.532 58.2757 287.15 58.7108 287.843 58.9895C291.222 60.682 294.66 62.3963 298.374 63.0936C302.089 63.7909 306.189 63.3624 309.197 61.0815C310.292 60.3147 311.121 59.2286 311.572 57.9726C312.052 56.4399 311.725 54.7911 311.645 53.1858C311.433 49.1979 312.773 45.3118 313.706 41.4183C314.638 37.5249 315.162 33.2611 313.363 29.6727C311.972 26.8471 314.966 24.4791 312.329 22.7576C308.615 20.3242 304.252 19.1257 298.163 20.0554C295.811 20.4041 287.763 23.6873 286.896 25.9101C286.029 28.1328 288.564 30.3773 288.272 32.7381C287.348 40.1036 285.396 47.7016 285.396 55.0671Z" fill="#5DADE2"/>
<path d="M321.295 42.7621C322.023 44.4256 322.635 46.4958 321.484 47.8468C321.06 48.2894 320.526 48.6124 319.937 48.7833C319.347 48.9542 318.723 48.9669 318.127 48.8202C316.948 48.503 315.817 48.0316 314.762 47.4183C314.067 47.1425 313.445 46.7128 312.941 46.1616C312.256 45.2682 312.336 44.0333 312.38 42.9074C312.57 37.3433 310.982 31.8955 311.076 26.3386C311.076 25.5033 310.836 23.651 311.878 23.3024C313.036 22.9174 313.378 24.7043 313.728 25.4815C314.929 28.1401 316.124 30.8059 317.289 33.4717C318.654 36.5564 319.989 39.6532 321.295 42.7621Z" fill="#5DADE2"/>
<path d="M312.249 40.4087L314.383 34.7429C314.556 34.2897 314.882 33.9109 315.304 33.6721C315.727 33.4334 316.221 33.3496 316.699 33.4354L320.457 34.0964C320.747 34.1453 321.023 34.2555 321.267 34.4195C321.51 34.5835 321.716 34.7975 321.869 35.0472C322.023 35.2969 322.122 35.5765 322.158 35.8673C322.195 36.1581 322.169 36.4533 322.082 36.7332L319.059 46.2778C318.894 46.7919 318.535 47.2215 318.058 47.4752C317.58 47.729 317.022 47.7867 316.503 47.6362L312.657 46.5466C312.394 46.4784 312.148 46.3587 311.932 46.1946C311.716 46.0305 311.535 45.8251 311.399 45.5906C311.264 45.356 311.176 45.0969 311.142 44.8283C311.108 44.5597 311.128 44.287 311.2 44.0261L312.176 40.5757C312.176 40.5249 312.227 40.4668 312.249 40.4087Z" fill="#606161"/>
<path d="M290.21 55.7353C290.282 55.604 290.388 55.4938 290.516 55.4157C290.706 55.3415 290.912 55.3214 291.113 55.3576C292.273 55.463 293.441 55.463 294.602 55.3576C294.966 55.3576 312.97 48.4788 311.805 47.8759C311.237 47.5853 302.81 46.3287 297.02 43.3868C292.082 40.8881 289.809 36.3046 287.857 39.3482C287.355 40.1326 286.066 50.5417 285.752 51.4134C285.694 51.6164 285.664 51.8267 285.665 52.0381L285.534 54.6821C285.396 55.6651 285.519 56.6668 285.891 57.5876C286.503 58.7716 287.843 59.3672 289.081 59.8685C289.448 60.0603 289.869 60.1218 290.275 60.0428C289.671 58.6409 289.299 57.1518 290.21 55.7353Z" fill="url(#paint6_linear)"/>
<path d="M299.285 57.8564L306.779 57.9072C306.779 57.9072 305.199 60.5149 303.866 60.653L299.285 57.8564Z" fill="#5DADE2"/>
<path d="M283.72 34.0601C283.947 37.8048 284.58 41.514 285.607 45.1229C286.335 47.6725 287.369 50.3238 289.525 51.871C291.482 53.1442 293.857 53.6127 296.153 53.1785C298.424 52.7391 300.627 52.0066 302.708 50.9993L309.139 48.2246C309.652 48.0398 310.119 47.7475 310.508 47.3674C311.601 46.1253 310.465 44.0406 308.906 43.4667C307.347 42.8929 305.636 43.2488 303.975 43.2416C302.14 43.2416 298.629 44.2948 297.02 43.4159C296.701 43.2783 296.432 43.0479 296.248 42.7549C296.107 42.4227 296.059 42.0587 296.109 41.7016C296.27 36.8058 295.599 29.1352 291.317 26.3604C286.058 22.9682 283.466 29.8398 283.72 34.0601Z" fill="#5DADE2"/>
<path d="M301.251 27.6025C301.947 27.9726 302.735 28.1325 303.52 28.0629C304.305 27.9932 305.053 27.6969 305.672 27.2103C306.253 26.6946 306.637 25.9937 306.757 25.2273C307.085 23.0481 305.25 21.0433 305.41 18.8569C305.49 17.7673 306.058 16.6777 305.672 15.6318C305.345 14.7601 300.465 13.3436 300.283 14.2589C299.066 20.7237 295.935 24.9512 301.251 27.6025Z" fill="#F4A982"/>
<path d="M300.996 14.5785C300.996 14.5785 300.523 24.0651 305.621 23.3968C305.621 23.3968 306.422 23.2878 306.182 22.1184C305.942 20.9489 304.951 19.7431 305.01 18.7044C305.068 17.6656 300.996 14.5785 300.996 14.5785Z" fill="url(#paint7_linear)"/>
<path d="M313.771 8.68754C313.702 9.79346 313.407 10.8736 312.905 11.8618C312.248 13.4273 311.482 14.9444 310.61 16.4017C309.944 17.6728 309.024 18.7949 307.908 19.6995C307.335 20.1329 306.662 20.4159 305.951 20.5225C305.239 20.6291 304.512 20.5559 303.837 20.3097C302.628 19.7939 301.863 18.5809 301.288 17.4041C300.39 15.5132 299.953 13.4374 300.013 11.3461C300.101 9.78437 300.479 7.56891 301.863 6.60282C302.186 6.37854 302.569 6.2547 302.963 6.24689C303.473 6.24689 303.859 6.57376 304.325 6.61735C304.683 6.59051 305.036 6.51474 305.374 6.39217C305.796 6.31227 306.219 6.25415 306.648 6.21057C307.475 6.14155 308.305 6.14155 309.132 6.21057C309.826 6.26019 310.515 6.36464 311.193 6.52292C311.843 6.63057 312.462 6.87846 313.007 7.2493C313.232 7.41805 313.418 7.63448 313.55 7.88311C313.682 8.13174 313.758 8.40643 313.771 8.68754Z" fill="#F4A982"/>
<path d="M316.546 39.2755C317.568 39.5585 318.464 40.178 319.088 41.0334C319.229 41.1792 319.334 41.3558 319.394 41.5491C319.441 41.7974 319.4 42.0543 319.277 42.2755C318.44 44.0188 316 44.1931 314.572 45.5006C314.249 45.8576 313.906 46.197 313.546 46.5176C313.028 46.8739 312.443 47.121 311.827 47.2439C311.193 47.4037 310.545 47.5345 309.904 47.6434C308.331 47.9049 307.537 46.3505 307.646 44.9631C307.741 43.721 308.374 43.2706 309.416 42.7839C311.594 41.6944 313.946 38.7525 316.546 39.2755Z" fill="#F4A982"/>
<path d="M300.101 9.5374C299.973 9.47898 299.833 9.4516 299.693 9.4575C299.583 9.4803 299.479 9.52824 299.391 9.59755C299.302 9.66687 299.231 9.75568 299.183 9.85701C299.097 10.0642 299.055 10.2867 299.059 10.5108C299.051 10.8426 299.083 11.1743 299.154 11.4986C299.196 11.8026 299.32 12.0893 299.514 12.3275C299.708 12.5657 299.964 12.7463 300.254 12.8497C300.519 12.8952 300.791 12.8428 301.02 12.7025C301.25 12.5621 301.42 12.3433 301.499 12.087C301.558 11.5701 301.456 11.0475 301.205 10.591C300.955 10.1345 300.569 9.76645 300.101 9.5374Z" fill="#F4A982"/>
<path d="M300.385 11.2299C300.29 11.0628 300.385 10.8522 300.385 10.656C300.385 10.4599 300.122 10.2928 299.853 10.1621C299.834 10.1673 299.816 10.1765 299.801 10.189C299.786 10.2016 299.774 10.2171 299.766 10.2347C299.656 10.4243 299.588 10.6353 299.566 10.8533C299.545 11.0713 299.571 11.2914 299.642 11.4986C299.68 11.6543 299.755 11.7986 299.86 11.9199C299.914 11.9803 299.983 12.0264 300.059 12.0542C300.135 12.0821 300.217 12.0909 300.297 12.0797C300.395 12.0488 300.484 11.9931 300.554 11.918C300.624 11.8429 300.674 11.751 300.698 11.6512C300.749 11.3461 300.523 11.4623 300.385 11.2299Z" fill="url(#paint8_linear)"/>
<path d="M307.078 0.152538C304.951 0.0944278 302.577 0.414036 301.215 2.04113C299.977 3.4939 299.94 5.62946 300.137 7.53985C300.17 8.03543 300.27 8.52422 300.436 8.99262C300.785 9.86427 301.557 10.5761 301.623 11.5132C301.652 10.8511 301.88 10.2132 302.278 9.68209C302.675 9.15102 303.223 8.75136 303.851 8.53499C304.395 8.38526 304.955 8.30472 305.519 8.29529L310.741 8.01926C311.007 7.98875 311.276 8.00597 311.535 8.07011C311.888 8.2395 312.226 8.43623 312.548 8.65848C312.895 8.80073 313.273 8.85139 313.645 8.80559C314.018 8.75979 314.372 8.61907 314.674 8.39698C315.271 7.94389 315.767 7.3726 316.131 6.71904C316.573 6.14878 316.828 5.45612 316.859 4.73601C316.823 4.00963 316.197 3.28325 315.49 3.40673C315.286 3.40673 315.06 3.52295 314.9 3.40673C313.56 2.41885 315.082 0.319607 312.715 0.0653726C310.836 0.0010111 308.954 0.0301024 307.078 0.152538Z" fill="#606161"/>
<path d="M281.441 266.466C271.557 268.239 257.661 268.645 247.639 269.619C231.616 271.224 214.282 265.5 198.207 266.59C197.479 255.694 198.12 240.527 199.489 235.922C201.099 230.292 204.347 225.026 209.067 221.598C209.955 221.598 212.381 219.586 213.269 219.142C214.85 218.44 216.472 217.836 218.127 217.334C221.078 216.39 224.082 215.616 227.122 215.017C233.888 213.615 241.892 215.118 248.804 215.423C253.043 215.598 257.42 215.801 261.186 217.675C264.573 219.346 267.202 222.179 269.358 225.244C273.32 230.837 280.312 252.556 281.441 266.466Z" fill="white"/>
<path d="M227.69 213.803C227.093 215.256 226.328 216.709 226.357 218.307C226.476 219.959 227.199 221.51 228.389 222.665C229.556 223.935 231.001 224.919 232.612 225.541C234.223 226.162 235.956 226.403 237.676 226.246C239.392 226.052 241.025 225.401 242.404 224.362C243.782 223.324 244.856 221.935 245.512 220.341C245.742 219.783 245.865 219.186 245.877 218.583C245.817 217.809 245.643 217.047 245.359 216.324C244.312 213.088 243.865 209.689 244.041 206.293C244.158 204.179 244.347 201.651 242.665 200.358C242.147 199.997 241.567 199.736 240.953 199.588C237.982 198.745 234.834 198.745 231.863 199.588C228.499 200.54 229.438 202.341 229.424 205.174C229.402 208.134 228.814 211.063 227.69 213.803Z" fill="url(#paint9_linear)"/>
<path d="M235.046 211.653C237.231 212.547 239.919 212.467 241.601 210.876C243.284 209.285 243.575 206.91 243.786 204.673L244.099 201.6C244.144 201.378 244.121 201.148 244.034 200.939C243.922 200.801 243.78 200.689 243.618 200.614C243.457 200.538 243.28 200.501 243.102 200.503C240.442 200.207 237.761 200.139 235.09 200.3C233.313 200.409 230.771 200.3 229.853 202.16C228.178 205.646 232.06 210.397 235.046 211.653Z" fill="url(#paint10_linear)"/>
<path d="M219.329 193.37C220.386 195.985 221.862 198.411 223.699 200.554C228.215 205.486 235.738 207.143 242.177 205.298C248.615 203.453 253.91 198.455 256.823 192.455C259.737 186.455 260.53 179.547 259.831 172.901C259.438 169.269 258.557 165.477 256.277 162.572C254.406 160.318 251.961 158.609 249.198 157.625C244.243 155.719 238.779 155.588 233.738 157.253C228.697 158.918 224.392 162.277 221.558 166.756C216.19 175.254 215.258 184.203 219.329 193.37Z" fill="url(#paint11_linear)"/>
<path d="M213.225 182.656C212.904 183.12 212.689 183.649 212.596 184.205C212.503 184.761 212.534 185.331 212.687 185.874C213.004 186.957 213.551 187.96 214.289 188.816C214.498 189.148 214.775 189.432 215.101 189.651C215.427 189.87 215.795 190.019 216.183 190.087C216.559 190.069 216.926 189.96 217.251 189.768C217.576 189.577 217.849 189.31 218.047 188.99C220.407 185.765 216.255 178.726 213.225 182.656Z" fill="url(#paint12_linear)"/>
<path d="M260.895 180.404C261.453 180.382 262.007 180.516 262.493 180.79C262.98 181.065 263.38 181.47 263.648 181.959C264.161 182.958 264.268 184.116 263.946 185.191C263.614 186.259 263.067 187.248 262.337 188.097C261.719 188.951 260.87 189.611 259.89 190C259.397 190.18 258.86 190.203 258.353 190.065C257.847 189.927 257.396 189.635 257.064 189.23C256.846 188.882 256.693 188.498 256.612 188.097C255.964 185.489 257.705 180.695 260.895 180.404Z" fill="url(#paint13_linear)"/>
<path d="M220.538 197.227C220.929 198.553 221.5 199.819 222.235 200.99C223.641 203.082 225.877 204.506 228.12 205.624C229.321 206.244 230.586 206.732 231.893 207.077C233.741 207.461 235.629 207.617 237.515 207.542C241.521 207.506 245.527 207.273 249.525 207.012C250.405 207.032 251.275 206.827 252.053 206.416C252.724 205.912 253.258 205.248 253.604 204.484C255.86 200.573 257.262 196.232 257.719 191.743C257.758 190.167 257.877 188.593 258.076 187.029C258.491 184.719 259.605 182.453 259.285 180.128C258.28 180.39 257.734 181.436 257.318 182.38C256.481 184.305 255.694 186.252 254.755 188.126C254.218 189.292 253.506 190.37 252.643 191.322C250.523 193.501 247.304 194.227 244.26 194.46C241.935 194.615 239.604 194.654 237.275 194.576C233.633 194.504 229.7 194.315 226.692 192.215C223.051 189.659 221.762 184.574 217.952 182.3C217.537 183.027 218.171 184.203 218.229 184.981C218.331 186.433 218.448 187.821 218.659 189.23C219.055 191.944 219.683 194.62 220.538 197.227Z" fill="#606161"/>
<path d="M220.538 197.227C220.929 198.553 221.5 199.819 222.235 200.99C223.641 203.082 225.877 204.506 228.12 205.624C229.321 206.244 230.586 206.732 231.893 207.077C233.741 207.461 235.629 207.617 237.515 207.542C241.521 207.506 245.527 207.273 249.525 207.012C250.405 207.032 251.275 206.827 252.053 206.416C252.724 205.912 253.258 205.248 253.604 204.484C255.86 200.573 257.262 196.232 257.719 191.743C257.758 190.167 257.877 188.593 258.076 187.029C258.491 184.719 259.605 182.453 259.285 180.128C258.28 180.39 257.734 181.436 257.318 182.38C256.481 184.305 255.694 186.252 254.755 188.126C254.218 189.292 253.506 190.37 252.643 191.322C250.523 193.501 247.304 194.227 244.26 194.46C241.935 194.615 239.604 194.654 237.275 194.576C233.633 194.504 229.7 194.315 226.692 192.215C223.051 189.659 221.762 184.574 217.952 182.3C217.537 183.027 218.171 184.203 218.229 184.981C218.331 186.433 218.448 187.821 218.659 189.23C219.055 191.944 219.683 194.62 220.538 197.227Z" fill="url(#paint14_linear)"/>
<path d="M241.033 197.358L236.27 197.198C235.535 197.124 234.793 197.193 234.085 197.402C233.73 197.509 233.413 197.714 233.169 197.993C232.926 198.271 232.766 198.613 232.708 198.978C232.712 199.572 232.921 200.146 233.298 200.605C233.487 200.92 233.734 201.196 234.027 201.419C234.638 201.743 235.335 201.872 236.022 201.789L244.587 201.608C244.819 201.621 245.05 201.573 245.257 201.469C245.459 201.325 245.604 201.114 245.665 200.874C245.866 200.266 245.886 199.613 245.722 198.994C245.557 198.375 245.217 197.817 244.74 197.387C243.837 196.704 242.162 197.394 241.033 197.358Z" fill="url(#paint15_linear)"/>
<path d="M218.222 184.044C219.081 183.818 219.169 182.649 219.118 181.763C218.856 177.275 219.831 172.801 221.936 168.826C223.473 170.221 225.877 169.429 227.843 168.753C236.241 165.848 245.396 166.807 254.238 167.584C254.548 167.538 254.865 167.603 255.132 167.768C255.398 167.933 255.598 168.187 255.694 168.484C257.766 172.781 258.896 177.469 259.008 182.235C259.737 181.654 261.361 181.196 261.856 180.506C262.206 180.027 262.155 178.69 262.41 178.051C263.138 176.279 264.667 174.986 265.104 173.053C265.92 169.422 262.701 165.92 263.269 162.274C263.538 160.523 264.653 159.027 265.192 157.342C265.573 156.128 265.658 154.841 265.441 153.588C265.223 152.334 264.708 151.151 263.939 150.136C262.89 148.785 261.026 147.746 259.489 148.473C258.979 148.705 258.564 149.112 258.032 149.359C255.804 150.448 253.509 148.218 251.303 147.092C247.85 145.327 243.553 146.366 240.247 148.385C239.205 149.025 238.113 149.795 236.889 149.744C236.128 149.637 235.39 149.406 234.704 149.061C230.05 147.223 224.435 148.778 220.902 152.308C217.37 155.838 215.804 161.025 216.095 166.029C216.197 167.773 216.503 169.574 215.935 171.223C215.003 173.954 214.194 177.993 215.316 180.84C215.578 181.516 217.661 184.182 218.222 184.044Z" fill="#606161"/>
<path d="M218.222 184.044C219.081 183.818 219.169 182.649 219.118 181.763C218.856 177.275 219.831 172.801 221.936 168.826C223.473 170.221 225.877 169.429 227.843 168.753C236.241 165.848 245.396 166.807 254.238 167.584C254.548 167.538 254.865 167.603 255.132 167.768C255.398 167.933 255.598 168.187 255.694 168.484C257.766 172.781 258.896 177.469 259.008 182.235C259.737 181.654 261.361 181.196 261.856 180.506C262.206 180.027 262.155 178.69 262.41 178.051C263.138 176.279 264.667 174.986 265.104 173.053C265.92 169.422 262.701 165.92 263.269 162.274C263.538 160.523 264.653 159.027 265.192 157.342C265.573 156.128 265.658 154.841 265.441 153.588C265.223 152.334 264.708 151.151 263.939 150.136C262.89 148.785 261.026 147.746 259.489 148.473C258.979 148.705 258.564 149.112 258.032 149.359C255.804 150.448 253.509 148.218 251.303 147.092C247.85 145.327 243.553 146.366 240.247 148.385C239.205 149.025 238.113 149.795 236.889 149.744C236.128 149.637 235.39 149.406 234.704 149.061C230.05 147.223 224.435 148.778 220.902 152.308C217.37 155.838 215.804 161.025 216.095 166.029C216.197 167.773 216.503 169.574 215.935 171.223C215.003 173.954 214.194 177.993 215.316 180.84C215.578 181.516 217.661 184.182 218.222 184.044Z" fill="url(#paint16_linear)"/>
<path d="M293.065 234.68C293.356 234.157 293.768 233.711 294.267 233.379C294.769 233.131 295.323 233.002 295.884 233.002C298.336 232.834 300.8 232.929 303.232 233.285C303.783 233.313 304.311 233.514 304.74 233.859C305.337 234.447 305.25 235.421 305.104 236.241C303.385 246.263 300.037 255.937 295.192 264.883C294.946 265.45 294.545 265.936 294.034 266.285C293.524 266.568 294.099 266.691 293.509 266.72C288.36 266.967 280.56 266.72 272.643 266.967C274.041 265.624 276.721 263.931 277.879 262.26C279.787 259.507 280.88 255.854 282.402 252.861C285.581 246.589 289.142 240.517 293.065 234.68Z" fill="white"/>
<path d="M296.219 227.924C297.43 225.638 299.384 223.83 301.761 222.796C303.669 222.07 305.767 222.033 307.814 222.012L323.342 221.895C323.544 221.867 323.751 221.881 323.948 221.937C324.145 221.993 324.328 222.091 324.485 222.222C324.886 222.673 324.572 223.377 324.201 223.857C321.04 227.939 315.09 228.258 310.428 230.503C307.741 231.796 305.425 233.779 302.679 234.948C300.654 235.813 296.801 236.59 295.053 234.672C293.305 232.755 295.192 229.726 296.219 227.924Z" fill="url(#paint17_linear)"/>
</g>
<defs>
<linearGradient id="paint0_linear" x1="412.962" y1="161.482" x2="286.233" y2="162.49" gradientUnits="userSpaceOnUse">
<stop stop-color="white" stop-opacity="0"/>
<stop offset="0.95" stop-color="white"/>
</linearGradient>
<linearGradient id="paint1_linear" x1="11697.5" y1="24735.7" x2="12322" y2="5740.44" gradientUnits="userSpaceOnUse">
<stop stop-color="white" stop-opacity="0"/>
<stop offset="0.95" stop-color="white"/>
</linearGradient>
<linearGradient id="paint2_linear" x1="308.702" y1="86.1272" x2="331.226" y2="76.7067" gradientUnits="userSpaceOnUse">
<stop stop-color="#010101" stop-opacity="0"/>
<stop offset="0.95" stop-color="#010101"/>
</linearGradient>
<linearGradient id="paint3_linear" x1="-25726.7" y1="3207.37" x2="-24410.4" y2="2704.08" gradientUnits="userSpaceOnUse">
<stop stop-color="#010101" stop-opacity="0"/>
<stop offset="0.95" stop-color="#010101"/>
</linearGradient>
<linearGradient id="paint4_linear" x1="-18896.8" y1="5209.98" x2="-19787.6" y2="5038.63" gradientUnits="userSpaceOnUse">
<stop stop-color="#010101" stop-opacity="0"/>
<stop offset="0.95" stop-color="#010101"/>
</linearGradient>
<linearGradient id="paint5_linear" x1="-16745.7" y1="2053.74" x2="-17250.4" y2="2020.24" gradientUnits="userSpaceOnUse">
<stop stop-color="#010101" stop-opacity="0"/>
<stop offset="0.95" stop-color="#010101"/>
</linearGradient>
<linearGradient id="paint6_linear" x1="-33413.6" y1="1670.3" x2="-35314.5" y2="1135.43" gradientUnits="userSpaceOnUse">
<stop stop-color="#010101" stop-opacity="0"/>
<stop offset="0.95" stop-color="#010101"/>
</linearGradient>
<linearGradient id="paint7_linear" x1="-6421.09" y1="316.786" x2="-6098.89" y2="84.3348" gradientUnits="userSpaceOnUse">
<stop stop-color="#010101" stop-opacity="0"/>
<stop offset="0.95" stop-color="#010101"/>
</linearGradient>
<linearGradient id="paint8_linear" x1="-1170.99" y1="45.0332" x2="-1162.7" y2="44.3482" gradientUnits="userSpaceOnUse">
<stop stop-color="#010101" stop-opacity="0"/>
<stop offset="0.95" stop-color="#010101"/>
</linearGradient>
<linearGradient id="paint9_linear" x1="226.372" y1="212.598" x2="245.891" y2="212.598" gradientUnits="userSpaceOnUse">
<stop stop-color="#E5C6D6"/>
<stop offset="0.42" stop-color="#EAD4D0"/>
<stop offset="1" stop-color="#F0E9CB"/>
</linearGradient>
<linearGradient id="paint10_linear" x1="5022.48" y1="3747.6" x2="5152.25" y2="3287.5" gradientUnits="userSpaceOnUse">
<stop stop-color="#010101" stop-opacity="0"/>
<stop offset="0.95" stop-color="#010101"/>
</linearGradient>
<linearGradient id="paint11_linear" x1="13328.6" y1="12743.4" x2="15899.4" y2="12743.4" gradientUnits="userSpaceOnUse">
<stop stop-color="#E5C6D6"/>
<stop offset="0.42" stop-color="#EAD4D0"/>
<stop offset="1" stop-color="#F0E9CB"/>
</linearGradient>
<linearGradient id="paint12_linear" x1="2055.28" y1="2403.25" x2="2107.98" y2="2403.25" gradientUnits="userSpaceOnUse">
<stop stop-color="#E5C6D6"/>
<stop offset="0.42" stop-color="#EAD4D0"/>
<stop offset="1" stop-color="#F0E9CB"/>
</linearGradient>
<linearGradient id="paint13_linear" x1="2991.85" y1="2694.87" x2="3072.11" y2="2694.87" gradientUnits="userSpaceOnUse">
<stop stop-color="#E5C6D6"/>
<stop offset="0.42" stop-color="#EAD4D0"/>
<stop offset="1" stop-color="#F0E9CB"/>
</linearGradient>
<linearGradient id="paint14_linear" x1="12860.3" y1="7576.88" x2="15229.2" y2="7576.88" gradientUnits="userSpaceOnUse">
<stop stop-color="#010101" stop-opacity="0"/>
<stop offset="0.95" stop-color="#010101"/>
</linearGradient>
<linearGradient id="paint15_linear" x1="4496.17" y1="1508.74" x2="4732.78" y2="1508.74" gradientUnits="userSpaceOnUse">
<stop stop-color="#E5C6D6"/>
<stop offset="0.42" stop-color="#EAD4D0"/>
<stop offset="1" stop-color="#F0E9CB"/>
</linearGradient>
<linearGradient id="paint16_linear" x1="15464" y1="8857.24" x2="19004.4" y2="8857.24" gradientUnits="userSpaceOnUse">
<stop stop-color="#010101" stop-opacity="0"/>
<stop offset="0.95" stop-color="#010101"/>
</linearGradient>
<linearGradient id="paint17_linear" x1="12716" y1="4666.19" x2="13979" y2="4666.19" gradientUnits="userSpaceOnUse">
<stop stop-color="#E5C6D6"/>
<stop offset="0.42" stop-color="#EAD4D0"/>
<stop offset="1" stop-color="#F0E9CB"/>
</linearGradient>
<clipPath id="clip0">
<rect width="469" height="368" fill="white"/>
</clipPath>
</defs>
</svg>
