<svg width="476" height="395" viewBox="0 0 476 395" fill="none" xmlns="http://www.w3.org/2000/svg">
<g clip-path="url(#clip0)">
<path opacity="0.24" d="M113.598 384.826C120.493 385.227 126.839 389.052 134.103 390.034C183.001 396.653 232.566 396.653 281.464 390.034C304.439 386.931 326.811 381.024 349.951 379.634C373.695 378.196 398.295 380.647 421.168 372.713C448.505 363.223 468.296 338.376 469.402 312.147C470.461 287.135 456.247 263.929 448.615 239.876C439.586 211.336 439.83 180.663 449.313 152.271C458.844 123.755 477.646 96.5908 475.881 66.8733C473.41 25.2861 422.855 -8.23347 377.743 1.78234C354.116 7.02199 334.294 21.704 310.934 27.8235C272.992 37.7764 232.226 23.8957 192.942 27.8235C159.573 31.2328 128.839 47.6901 106.515 70.1726C84.1904 92.6552 69.7807 120.747 61.0736 149.765C53.3942 175.39 49.7074 202.491 35.2742 225.657C24.7002 242.617 8.48632 257.307 3.74844 276.286C-1.80523 298.525 -18.2858 377.238 113.598 384.826Z" fill="#5DADE2"/>
<path d="M61.2238 186.326V226.546C61.2227 228.756 61.6566 230.944 62.5006 232.986C63.3447 235.028 64.5823 236.884 66.1427 238.446C67.7031 240.009 69.5558 241.248 71.5948 242.094C73.6338 242.939 75.8192 243.373 78.026 243.372H81.046V261.055L90.2158 243.372H159.943C164.399 243.372 168.673 241.6 171.824 238.444C174.975 235.288 176.745 231.009 176.745 226.546V186.326C176.746 184.116 176.312 181.927 175.468 179.885C174.624 177.843 173.386 175.988 171.826 174.425C170.265 172.862 168.413 171.623 166.374 170.778C164.335 169.932 162.149 169.498 159.943 169.499H78.026C75.8192 169.498 73.6338 169.932 71.5948 170.778C69.5558 171.623 67.7031 172.862 66.1427 174.425C64.5823 175.988 63.3447 177.843 62.5006 179.885C61.6566 181.927 61.2227 184.116 61.2238 186.326Z" fill="#5DADE2"/>
<path d="M61.2238 186.326V226.546C61.2227 228.756 61.6566 230.944 62.5006 232.986C63.3447 235.028 64.5823 236.884 66.1427 238.446C67.7031 240.009 69.5558 241.248 71.5948 242.094C73.6338 242.939 75.8192 243.373 78.026 243.372H81.046V261.055L90.2158 243.372H159.943C164.399 243.372 168.673 241.6 171.824 238.444C174.975 235.288 176.745 231.009 176.745 226.546V186.326C176.746 184.116 176.312 181.927 175.468 179.885C174.624 177.843 173.386 175.988 171.826 174.425C170.265 172.862 168.413 171.623 166.374 170.778C164.335 169.932 162.149 169.498 159.943 169.499H78.026C75.8192 169.498 73.6338 169.932 71.5948 170.778C69.5558 171.623 67.7031 172.862 66.1427 174.425C64.5823 175.988 63.3447 177.843 62.5006 179.885C61.6566 181.927 61.2227 184.116 61.2238 186.326Z" fill="url(#paint0_linear)"/>
<path d="M76.1199 188.926H162.194V184.11H76.1199V188.926Z" fill="#5DADE2"/>
<path d="M76.1199 201.644H162.194V196.828H76.1199V201.644Z" fill="#5DADE2"/>
<path d="M76.1199 214.354H162.194V209.539H76.1199V214.354Z" fill="#5DADE2"/>
<path d="M226.634 383.107C298.722 383.107 357.161 373.428 357.161 361.488C357.161 349.549 298.722 339.87 226.634 339.87C154.546 339.87 96.1068 349.549 96.1068 361.488C96.1068 373.428 154.546 383.107 226.634 383.107Z" fill="url(#paint1_linear)"/>
<path d="M289.301 47.2118H171.638C158.161 47.2118 147.235 58.1533 147.235 71.6504V344.811C147.235 358.308 158.161 369.25 171.638 369.25H289.301C302.778 369.25 313.704 358.308 313.704 344.811V71.6504C313.704 58.1533 302.778 47.2118 289.301 47.2118Z" fill="#5DADE2"/>
<path d="M302.032 74.3998V341.622H158.115V74.3998C158.123 71.721 159.19 69.1543 161.081 67.26C162.972 65.3658 165.536 64.298 168.21 64.2897H205.298C205.302 66.5545 206.203 68.7252 207.802 70.3259C209.402 71.9266 211.571 72.8266 213.832 72.8287H247.288C248.411 72.8318 249.523 72.6131 250.562 72.185C251.601 71.757 252.545 71.128 253.34 70.3342C254.136 69.5403 254.767 68.5972 255.199 67.5586C255.63 66.5201 255.852 65.4066 255.853 64.2819H291.937C294.614 64.286 297.181 65.3536 299.073 67.2504C300.966 69.1472 302.03 71.7183 302.032 74.3998Z" fill="url(#paint2_linear)"/>
<path opacity="0.24" d="M293.905 269.476H164.665V335.235H293.905V269.476Z" fill="#5DADE2"/>
<path opacity="0.51" d="M294.886 124.919H164.359V250.717H294.886V124.919Z" fill="#5DADE2"/>
<path d="M219.802 293.742L227.214 286.405L232.187 287.528V288.95L224.367 297.489L217.77 297.796L219.802 293.742Z" fill="#606161"/>
<path d="M226.642 287.458L230.415 288.503L223.253 295.879L220.5 295.902L220.962 292.996L226.642 287.458Z" fill="url(#paint3_linear)"/>
<path d="M184.785 314.897C184.785 314.897 213.33 301.747 218.743 303.852C224.155 305.958 238.588 331.975 238.588 331.975L228.399 331.771L212.161 317.741L198.356 329.328L178.29 328.134L184.785 314.897Z" fill="#606161"/>
<path d="M184.785 314.897C184.785 314.897 213.33 301.747 218.743 303.852C224.155 305.958 238.588 331.975 238.588 331.975L228.399 331.771L212.161 317.741L198.356 329.328L178.29 328.134L184.785 314.897Z" fill="url(#paint4_linear)"/>
<path d="M162.045 334.512C162.045 334.512 163.975 341.119 169.152 341.834C174.329 342.549 251.578 340.703 251.578 340.703C252.214 340.342 252.761 339.846 253.182 339.248C253.602 338.65 253.885 337.967 254.01 337.246C254.622 334.599 252.998 331.747 252.998 331.747L188.346 324.261L162.045 334.512Z" fill="#606161"/>
<path d="M162.045 334.512C162.045 334.512 163.975 341.119 169.152 341.834C174.329 342.549 251.578 340.703 251.578 340.703C252.214 340.342 252.761 339.846 253.182 339.248C253.602 338.65 253.885 337.967 254.01 337.246C254.622 334.599 252.998 331.747 252.998 331.747L188.346 324.261L162.045 334.512Z" fill="url(#paint5_linear)"/>
<path d="M215.338 297.583C217.544 297.614 219.695 298.27 221.543 299.477C222.454 300.091 223.197 300.924 223.704 301.899C224.211 302.875 224.466 303.962 224.445 305.062C224.452 305.382 224.349 305.695 224.155 305.95C223.925 306.169 223.617 306.287 223.3 306.28C221.551 306.335 220.437 304.292 218.743 303.852C217.652 303.569 216.507 303.994 215.385 303.923C214.719 303.872 214.076 303.651 213.519 303.281C212.961 302.911 212.507 302.405 212.2 301.81C211.946 301.306 211.807 300.753 211.794 300.189C211.78 299.625 211.892 299.065 212.122 298.55C212.757 297.45 214.169 297.497 215.338 297.583Z" fill="#F4A982"/>
<path d="M196.936 297.073C196.928 297.176 196.94 297.28 196.973 297.378C197.005 297.477 197.056 297.568 197.124 297.646C197.285 297.755 197.481 297.8 197.673 297.772L212.828 297.473C213.195 299.302 213.214 301.184 212.883 303.019C212.855 303.321 212.743 303.61 212.561 303.852C212.241 304.13 211.832 304.286 211.408 304.292C205.007 305.119 198.701 306.571 192.582 308.628C191.969 308.908 191.29 309.011 190.621 308.927C189.382 308.652 188.817 307.222 188.558 305.981C187.687 301.794 188.009 297.458 187.515 293.208C187.272 291.142 186.856 288.95 187.711 287.049C188.495 285.29 194.143 280.953 195.336 283.75C196.12 285.604 196.065 288.393 196.3 290.388C196.583 292.608 196.795 294.837 196.936 297.073Z" fill="#5DADE2"/>
<path d="M196.936 297.073C196.928 297.176 196.94 297.28 196.973 297.378C197.005 297.477 197.056 297.568 197.124 297.646C197.285 297.755 197.481 297.8 197.673 297.772L212.828 297.473C213.195 299.302 213.214 301.184 212.883 303.019C212.855 303.321 212.743 303.61 212.561 303.852C212.241 304.13 211.832 304.286 211.408 304.292C205.007 305.119 198.701 306.571 192.582 308.628C191.969 308.908 191.29 309.011 190.621 308.927C189.382 308.652 188.817 307.222 188.558 305.981C187.687 301.794 188.009 297.458 187.515 293.208C187.272 291.142 186.856 288.95 187.711 287.049C188.495 285.29 194.143 280.953 195.336 283.75C196.12 285.604 196.065 288.393 196.3 290.388C196.583 292.608 196.795 294.837 196.936 297.073Z" fill="url(#paint6_linear)"/>
<path d="M215.566 297.693C216.111 296.411 216.913 295.253 217.922 294.293C218.931 293.332 220.126 292.589 221.433 292.108C222.045 293.161 220.092 294.622 220.923 295.517C221.093 295.651 221.289 295.746 221.499 295.798C221.709 295.849 221.927 295.855 222.139 295.816L227.159 295.604C227.315 295.577 227.475 295.611 227.606 295.698C227.699 295.794 227.754 295.919 227.763 296.052C227.783 296.557 227.68 297.059 227.464 297.515C227.249 297.972 226.926 298.37 226.524 298.675C225.74 299.343 224.861 299.83 224.124 300.514C222.923 301.621 222.163 303.255 220.688 303.97C219.574 304.512 218.256 304.426 217.095 304.842C215.668 305.36 214.334 306.664 212.875 306.225C212.177 306.02 212.961 301.896 213.314 301.425C214.232 300.29 214.99 299.035 215.566 297.693Z" fill="#F4A982"/>
<path d="M194.583 272.776C195.469 273.567 196.424 274.277 197.438 274.897C197.82 275.177 198.282 275.329 198.756 275.329C199.289 275.224 199.764 274.924 200.089 274.488C200.999 273.497 201.751 272.371 202.317 271.15C202.383 270.967 202.487 270.801 202.623 270.663C203.093 270.246 203.854 270.663 204.45 270.443C204.667 270.354 204.854 270.207 204.993 270.019C205.131 269.83 205.215 269.607 205.235 269.374C205.275 268.911 205.241 268.444 205.133 267.992C204.942 266.969 204.884 265.926 204.96 264.889C205.125 263.231 205.784 261.582 205.447 259.955C205.039 258.55 204.219 257.299 203.093 256.365C202.339 255.583 201.458 254.933 200.489 254.441C199.339 253.971 198.107 253.736 196.865 253.75C195.349 253.59 193.822 253.917 192.504 254.684C191.288 255.533 190.613 256.947 189.994 258.298L184.715 269.814C184.552 270.113 184.468 270.448 184.471 270.788C184.526 271.079 184.656 271.35 184.848 271.574C185.907 273.076 187.301 274.311 188.919 275.179C189.829 275.667 191.437 276.334 192.433 275.706C193.429 275.077 193.884 273.577 194.583 272.776Z" fill="#F4A982"/>
<path d="M210.491 258.094C211.261 257.211 211.791 256.144 212.03 254.997C212.269 253.849 212.209 252.66 211.855 251.542C211.758 251.176 211.569 250.841 211.306 250.568C210.936 250.3 210.505 250.127 210.051 250.065C207.046 249.381 204.158 248.258 201.478 246.735C199.979 245.878 198.458 244.873 196.771 244.818C195.834 244.805 194.915 245.073 194.131 245.586C193.347 246.1 192.734 246.836 192.37 247.701C191.933 247.428 191.435 247.267 190.92 247.233C190.406 247.199 189.891 247.292 189.421 247.504C188.481 247.94 187.696 248.653 187.17 249.547C185.711 251.904 185.648 254.794 185.601 257.544L185.546 266.452C185.535 266.617 185.556 266.782 185.609 266.939C185.701 267.108 185.847 267.24 186.023 267.316C186.2 267.391 186.396 267.405 186.581 267.355C186.95 267.253 187.288 267.064 187.57 266.805C188.723 265.894 189.86 264.967 190.998 264.032C190.489 263.269 190.259 262.353 190.347 261.44C190.436 260.526 190.838 259.671 191.484 259.021C191.638 258.852 191.836 258.732 192.057 258.675C192.246 258.667 192.435 258.703 192.608 258.781C192.781 258.858 192.933 258.975 193.053 259.123C193.745 259.886 194.119 260.885 194.1 261.916C194.082 262.947 193.67 263.931 192.951 264.669C194.218 264.182 195.242 263.214 195.798 261.974C196.339 260.741 197.046 259.589 197.901 258.549C198.842 257.591 200.403 257.057 201.54 257.764C203.109 258.73 203.337 260.34 205.462 260.34C206.41 260.336 207.347 260.133 208.212 259.747C209.078 259.36 209.854 258.797 210.491 258.094Z" fill="#606161"/>
<path d="M210.491 258.094C211.261 257.211 211.791 256.144 212.03 254.997C212.269 253.849 212.209 252.66 211.855 251.542C211.758 251.176 211.569 250.841 211.306 250.568C210.936 250.3 210.505 250.127 210.051 250.065C207.046 249.381 204.158 248.258 201.478 246.735C199.979 245.878 198.458 244.873 196.771 244.818C195.834 244.805 194.915 245.073 194.131 245.586C193.347 246.1 192.734 246.836 192.37 247.701C191.933 247.428 191.435 247.267 190.92 247.233C190.406 247.199 189.891 247.292 189.421 247.504C188.481 247.94 187.696 248.653 187.17 249.547C185.711 251.904 185.648 254.794 185.601 257.544L185.546 266.452C185.535 266.617 185.556 266.782 185.609 266.939C185.701 267.108 185.847 267.24 186.023 267.316C186.2 267.391 186.396 267.405 186.581 267.355C186.95 267.253 187.288 267.064 187.57 266.805C188.723 265.894 189.86 264.967 190.998 264.032C190.489 263.269 190.259 262.353 190.347 261.44C190.436 260.526 190.838 259.671 191.484 259.021C191.638 258.852 191.836 258.732 192.057 258.675C192.246 258.667 192.435 258.703 192.608 258.781C192.781 258.858 192.933 258.975 193.053 259.123C193.745 259.886 194.119 260.885 194.1 261.916C194.082 262.947 193.67 263.931 192.951 264.669C194.218 264.182 195.242 263.214 195.798 261.974C196.339 260.741 197.046 259.589 197.901 258.549C198.842 257.591 200.403 257.057 201.54 257.764C203.109 258.73 203.337 260.34 205.462 260.34C206.41 260.336 207.347 260.133 208.212 259.747C209.078 259.36 209.854 258.797 210.491 258.094Z" fill="url(#paint7_linear)"/>
<path d="M188.276 317.23C188.542 319.587 188.966 321.991 188.346 324.3C187.633 326.924 185.632 329.084 183.365 330.773C178.847 334.072 173.394 335.837 167.802 335.809C164.704 335.809 161.229 335.023 159.676 332.486C158.648 330.828 158.703 328.794 158.79 326.877L159.237 316.9C159.558 309.657 159.896 302.36 161.739 295.321C163.582 288.283 167.081 281.44 172.846 276.586C174.7 274.94 176.886 273.712 179.255 272.988C188.142 270.545 197.885 276.004 194.739 284.991C190.88 296.012 186.927 305.282 188.276 317.23Z" fill="#5DADE2"/>
<path d="M174.972 316.649C175.106 317.434 174.69 319.461 175.113 320.145C176.133 321.763 176.941 333.876 178.8 333.413C180.659 332.949 186.503 326.743 188.001 325.557C189.303 324.52 188.472 315.219 188.001 313.609C187.73 312.939 187.337 312.326 186.84 311.802C184.997 309.445 184.534 306.256 184.487 303.247C184.44 300.239 184.738 297.183 184.173 294.229C183.577 291.087 181.632 287.552 178.275 286.853C173.843 285.942 173.788 288.251 174.682 291.291C177.067 299.382 173.607 308.33 174.972 316.649Z" fill="url(#paint8_linear)"/>
<path d="M258.873 333.271C259.384 333.889 259.639 334.679 259.587 335.479C259.655 336.107 259.637 336.741 259.532 337.364C259.426 337.995 259.077 338.559 258.56 338.935C257.921 339.253 257.205 339.378 256.497 339.296L254.638 339.249C253.999 339.27 253.361 339.19 252.747 339.014C252.441 338.925 252.159 338.767 251.924 338.551C251.689 338.336 251.506 338.07 251.39 337.772C251.261 337.31 251.261 336.821 251.39 336.358C251.735 334.787 252.174 332.643 254.033 332.627C255.312 332.603 257.924 332.399 258.873 333.271Z" fill="#F4A982"/>
<path d="M263.525 319.163C261.891 322.55 260.058 325.837 258.034 329.006C257.362 329.878 256.941 330.919 256.818 332.014C256.882 332.752 257.04 333.478 257.289 334.175C257.597 335.318 257.679 336.511 257.532 337.686C257.403 338.349 257.332 339.022 257.32 339.697C257.319 340.035 257.398 340.369 257.552 340.67C257.707 340.971 257.931 341.23 258.207 341.425C258.648 341.65 259.14 341.756 259.634 341.732L265.541 341.983C265.901 342.019 266.264 341.995 266.616 341.912C267.275 341.649 267.814 341.151 268.13 340.514C270.914 335.958 269.996 330.145 270.961 324.889C271.361 322.713 272.099 320.577 272.154 318.361C272.218 317.713 272.145 317.059 271.938 316.441C271.731 315.823 271.396 315.257 270.953 314.779C269.981 313.915 268.169 313.994 267.62 315.164" fill="#606161"/>
<path d="M263.525 319.163C261.891 322.55 260.058 325.837 258.034 329.006C257.362 329.878 256.941 330.919 256.818 332.014C256.882 332.752 257.04 333.478 257.289 334.175C257.597 335.318 257.679 336.511 257.532 337.686C257.403 338.349 257.332 339.022 257.32 339.697C257.319 340.035 257.398 340.369 257.552 340.67C257.707 340.97 257.931 341.23 258.207 341.425C258.648 341.65 259.14 341.756 259.634 341.732C261.603 341.818 261.462 341.661 263.431 341.732C263.791 341.761 264.153 341.734 264.505 341.653C265.165 341.39 265.704 340.892 266.019 340.255C268.804 335.699 268.561 330.624 269.526 325.369C269.926 323.193 270.663 321.056 270.718 318.841C270.783 318.192 270.71 317.538 270.503 316.92C270.296 316.302 269.96 315.736 269.518 315.258C268.545 314.386 268.169 313.97 267.62 315.148" fill="url(#paint9_linear)"/>
<path d="M175.176 286.908C175.176 286.908 175.043 278.267 182.754 277.552C190.464 276.837 191.688 285.007 191.421 287.285C191.155 289.563 192.637 302.595 192.637 302.595L213.346 301.244L214.13 307.207C214.13 307.207 185.036 316.013 183.412 314.119C181.789 312.226 179.765 308.589 175.176 286.908Z" fill="#5DADE2"/>
<path d="M167.104 283.169C167.104 283.169 172.501 283.656 176.015 282.022C179.53 280.388 188.997 278.542 191.829 279.264C195.202 280.128 194.896 277.693 194.896 277.693L181.742 273.608C181.742 273.608 170.211 278.11 169.23 279.995C168.636 281.125 167.923 282.189 167.104 283.169Z" fill="url(#paint10_linear)"/>
<path d="M184.918 268.204C183.561 266.947 182.118 265.643 180.314 265.234C178.51 264.826 176.274 265.698 175.874 267.505C175.725 268.157 175.709 269.013 175.09 269.225C174.697 269.359 174.305 269.131 173.866 269.146C173.561 269.186 173.272 269.309 173.031 269.502C172.791 269.694 172.607 269.949 172.501 270.238C172.242 270.804 172.148 271.425 171.889 271.982C171.246 273.404 169.74 274.166 168.563 275.187C167.387 276.209 166.477 278.015 167.418 279.257C168.359 280.498 170.054 280.183 171.442 279.806C174.901 278.864 178.298 277.607 181.844 277.049C185.389 276.491 189.194 276.688 192.292 278.495C195.696 280.49 195.602 276.554 193.186 275.156C190.049 273.349 187.609 270.655 184.918 268.204Z" fill="#5DADE2"/>
<path d="M184.22 272.556C183.333 272.438 182.474 272.158 181.687 271.731C179.924 270.923 178.117 270.214 176.274 269.61C176.171 269.584 176.075 269.536 175.992 269.469C175.896 269.367 175.836 269.238 175.819 269.099C175.662 268.314 175.882 266.837 176.808 266.703C177.537 266.593 178.949 267.646 179.545 268.015C181.413 269.172 183.009 270.721 184.22 272.556Z" fill="url(#paint11_linear)"/>
<path d="M182.173 273.93C181.279 273.876 180.824 274.912 176.157 273.993C174.258 273.616 174.376 273.907 172.533 273.302C172.429 273.276 172.333 273.228 172.25 273.161C172.155 273.059 172.094 272.93 172.078 272.791C171.921 272.045 172.14 270.529 173.066 270.395C173.796 270.286 175.207 271.338 175.804 271.707C177.663 272.886 178.737 273.828 182.173 273.93Z" fill="url(#paint12_linear)"/>
<path opacity="0.24" d="M179.482 120.001C185.851 120.001 191.013 114.831 191.013 108.454C191.013 102.076 185.851 96.9059 179.482 96.9059C173.114 96.9059 167.952 102.076 167.952 108.454C167.952 114.831 173.114 120.001 179.482 120.001Z" fill="#5DADE2"/>
<path opacity="0.51" d="M244.181 102.311H196.418V107.88H244.181V102.311Z" fill="#5DADE2"/>
<path opacity="0.24" d="M261.407 112.876H196.418V115.657H261.407V112.876Z" fill="#5DADE2"/>
<path d="M309.194 211.872C309.194 230.921 328.992 246.35 353.403 246.35C357.505 246.364 361.595 245.908 365.593 244.991L384.89 254.881L377.109 240.937C389.432 234.857 397.59 224.15 397.59 211.872C397.59 192.814 377.791 177.394 353.372 177.394C328.953 177.394 309.194 192.822 309.194 211.872Z" fill="#5DADE2"/>
<path d="M308.182 211.385C308.182 230.442 327.981 245.863 352.392 245.863C356.493 245.877 360.583 245.421 364.581 244.504L383.878 254.394L376.128 240.419C388.451 234.339 396.609 223.639 396.609 211.353C396.609 192.304 376.811 176.875 352.392 176.875C327.973 176.875 308.182 192.335 308.182 211.385Z" fill="url(#paint13_linear)"/>
<path d="M337.056 115.626C337.056 115.626 331.11 107.817 325.541 115.256C319.972 122.696 338.17 131.627 338.17 131.627C338.17 131.627 351.176 122.326 349.693 116.749C348.211 111.172 340.029 109.679 337.056 115.626Z" fill="white"/>
<path d="M114.164 135.312C114.164 135.312 109.199 128.784 104.547 134.997C99.8955 141.211 115.098 148.666 115.098 148.666C115.098 148.666 125.946 140.897 124.707 136.239C124.39 135.136 123.747 134.156 122.862 133.427C121.978 132.697 120.894 132.253 119.753 132.153C118.612 132.053 117.467 132.301 116.469 132.865C115.472 133.428 114.668 134.281 114.164 135.312Z" fill="white"/>
<path d="M371.947 138.03C371.947 138.03 363.938 127.503 356.423 137.527C348.909 147.551 373.445 159.585 373.445 159.585C373.445 159.585 390.969 147.056 388.969 139.538C386.969 132.02 375.916 129.986 371.947 138.03Z" fill="white"/>
<path d="M129.562 110.221C129.562 110.221 125.993 105.508 122.644 110.001C119.294 114.494 130.237 119.836 130.237 119.836C130.237 119.836 138.042 114.243 137.155 110.897C136.927 110.103 136.464 109.397 135.828 108.872C135.192 108.346 134.411 108.026 133.59 107.953C132.768 107.88 131.944 108.057 131.225 108.462C130.506 108.867 129.927 109.48 129.562 110.221Z" fill="white"/>
</g>
<defs>
<linearGradient id="paint0_linear" x1="122.495" y1="290.867" x2="111.772" y2="33.8823" gradientUnits="userSpaceOnUse">
<stop stop-color="white" stop-opacity="0"/>
<stop offset="0.95" stop-color="white"/>
</linearGradient>
<linearGradient id="paint1_linear" x1="229.858" y1="291.951" x2="176.709" y2="1435.95" gradientUnits="userSpaceOnUse">
<stop stop-color="#010101" stop-opacity="0"/>
<stop offset="0.95" stop-color="#010101"/>
</linearGradient>
<linearGradient id="paint2_linear" x1="35125.6" y1="205271" x2="98418.9" y2="6781.16" gradientUnits="userSpaceOnUse">
<stop stop-color="white" stop-opacity="0"/>
<stop offset="0.95" stop-color="white"/>
</linearGradient>
<linearGradient id="paint3_linear" x1="3045.88" y1="3553.69" x2="3074.94" y2="3347.48" gradientUnits="userSpaceOnUse">
<stop stop-color="white" stop-opacity="0"/>
<stop offset="0.95" stop-color="white"/>
</linearGradient>
<linearGradient id="paint4_linear" x1="17383.8" y1="11592.5" x2="17542.9" y2="12633.6" gradientUnits="userSpaceOnUse">
<stop stop-color="#010101" stop-opacity="0"/>
<stop offset="0.95" stop-color="#010101"/>
</linearGradient>
<linearGradient id="paint5_linear" x1="27031.2" y1="7755.33" x2="27043.5" y2="8251.41" gradientUnits="userSpaceOnUse">
<stop stop-color="#010101" stop-opacity="0"/>
<stop offset="0.95" stop-color="#010101"/>
</linearGradient>
<linearGradient id="paint6_linear" x1="7612.99" y1="9974.66" x2="6786.2" y2="11958.3" gradientUnits="userSpaceOnUse">
<stop stop-color="#010101" stop-opacity="0"/>
<stop offset="0.95" stop-color="#010101"/>
</linearGradient>
<linearGradient id="paint7_linear" x1="7225.76" y1="7676.26" x2="8129.85" y2="7676.26" gradientUnits="userSpaceOnUse">
<stop stop-color="#010101" stop-opacity="0"/>
<stop offset="0.95" stop-color="#010101"/>
</linearGradient>
<linearGradient id="paint8_linear" x1="3664.82" y1="19088.3" x2="5741.42" y2="18886.3" gradientUnits="userSpaceOnUse">
<stop stop-color="#010101" stop-opacity="0"/>
<stop offset="0.95" stop-color="#010101"/>
</linearGradient>
<linearGradient id="paint9_linear" x1="5203.25" y1="11821.8" x2="5449.97" y2="11821.8" gradientUnits="userSpaceOnUse">
<stop stop-color="#010101" stop-opacity="0"/>
<stop offset="0.95" stop-color="#010101"/>
</linearGradient>
<linearGradient id="paint10_linear" x1="7360.68" y1="3760.24" x2="7339.1" y2="3162.84" gradientUnits="userSpaceOnUse">
<stop stop-color="#010101" stop-opacity="0"/>
<stop offset="0.95" stop-color="#010101"/>
</linearGradient>
<linearGradient id="paint11_linear" x1="2344.75" y1="2314.37" x2="2387.38" y2="2088.81" gradientUnits="userSpaceOnUse">
<stop stop-color="#010101" stop-opacity="0"/>
<stop offset="0.95" stop-color="#010101"/>
</linearGradient>
<linearGradient id="paint12_linear" x1="2737.21" y1="1678.73" x2="2750.51" y2="1554.48" gradientUnits="userSpaceOnUse">
<stop stop-color="#010101" stop-opacity="0"/>
<stop offset="0.95" stop-color="#010101"/>
</linearGradient>
<linearGradient id="paint13_linear" x1="73416.5" y1="21647.2" x2="92002.7" y2="21815.6" gradientUnits="userSpaceOnUse">
<stop stop-color="white" stop-opacity="0"/>
<stop offset="0.95" stop-color="white"/>
</linearGradient>
<clipPath id="clip0">
<rect width="476" height="395" fill="white"/>
</clipPath>
</defs>
</svg>
