<svg width="53" height="36" viewBox="0 0 53 36" fill="none" xmlns="http://www.w3.org/2000/svg">
<path d="M37.5447 35.8752C36.6317 35.7284 34.0797 35.0642 33.9474 34.939C33.8833 34.8783 38.1469 27.3883 38.3756 27.1598C38.436 27.0995 38.7276 27.1607 39.1666 27.3258C40.1099 27.6806 40.6222 27.7852 41.465 27.7947C42.2237 27.8032 42.8602 27.6102 43.0986 27.2994C43.333 26.9937 43.4291 26.4952 43.3257 26.1212C43.1178 25.3693 42.4082 24.8142 41.0152 24.3141L40.1535 24.0048L42.1965 20.4827C43.3201 18.5455 44.2551 16.917 44.2742 16.8636C44.3191 16.7388 46.256 17.3298 47.3675 17.8073C50.1809 19.0162 52.2405 21.4181 52.864 24.2172C53.094 25.2498 53.0225 27.4884 52.7239 28.6035C51.7363 32.2923 48.9106 34.7899 44.597 35.7867C43.5865 36.0202 38.8184 36.0801 37.5447 35.8752Z" fill="white"/>
<path d="M31.9432 34.7901C31.9432 34.7557 36.6638 26.572 36.7388 26.4764C36.7852 26.4173 37.0481 26.472 37.1482 26.5616C37.1991 26.6071 32.5838 34.6125 32.4595 34.6946C32.3592 34.7608 31.9432 34.8377 31.9432 34.7901Z" fill="white"/>
<path d="M38.6302 23.5777C38.5541 23.5473 38.4925 23.4985 38.4934 23.4693C38.4942 23.44 39.4327 21.7972 40.5788 19.8185C42.7952 15.992 42.6723 16.1719 42.9879 16.2918L43.1196 16.3418L41.3794 19.3506C40.4223 21.0055 39.4763 22.6424 39.2772 22.9882C39.0781 23.3339 38.8823 23.6205 38.842 23.6249C38.8017 23.6293 38.7064 23.6081 38.6302 23.5777Z" fill="white"/>
<path d="M36.7941 22.5928C35.6362 21.8172 34.3618 20.6428 33.6662 19.7106C32.6737 18.3804 32.0437 17.0773 31.7096 15.6635C31.5755 15.0965 31.5678 15.0005 31.5682 13.9064C31.5686 12.892 31.5827 12.684 31.6832 12.2209C32.0397 10.577 32.6311 9.47054 33.7558 8.34381C34.9699 7.12736 36.2319 6.44897 38.203 5.95316C39.7659 5.56002 40.9006 5.45139 43.0001 5.49393C43.7759 5.50964 44.7279 5.55719 45.1158 5.59959C46.1343 5.71091 47.0378 5.83924 47.1079 5.88253C47.1499 5.90849 46.5061 7.06596 45.0129 9.64906L42.8573 13.3781H42.6687C42.0355 13.3781 41.1134 13.7246 40.7873 14.0851C40.4132 14.4988 40.4887 14.8796 41.0557 15.4391L41.4445 15.8228L39.4512 19.271C38.3548 21.1675 37.4241 22.7682 37.3829 22.8281C37.3083 22.9365 37.3054 22.9353 36.7941 22.5928Z" fill="white"/>
<path d="M49.5991 14.8532C48.9776 14.6151 47.7181 14.2297 46.8198 14.0028C46.409 13.899 46.0654 13.8085 46.0563 13.8017C46.0471 13.7949 46.9636 12.19 48.0929 10.2354C49.8513 7.19201 50.1612 6.68367 50.2505 6.69641C50.3531 6.71107 50.3545 6.73004 50.3394 7.96918C50.3132 10.1359 50.1234 14.9672 50.0626 15.0184C50.057 15.0231 49.8484 14.9488 49.5991 14.8532Z" fill="white"/>
<path d="M44.4232 13.4939C44.347 13.4819 44.2849 13.4566 44.2853 13.4377C44.2855 13.4188 45.2226 11.7844 46.3674 9.80571L48.449 6.20815L48.6433 6.22035C48.7502 6.22705 48.8554 6.25027 48.8771 6.27194C48.8988 6.29361 47.9813 7.92967 46.8382 9.90763C45.2388 12.6752 44.7371 13.5053 44.6608 13.5098C44.6063 13.513 44.4994 13.5059 44.4232 13.4939V13.4939Z" fill="white"/>
<path d="M28.9208 34.9582C26.6663 34.7615 24.1573 33.9352 20.4581 32.1709C17.6117 30.8134 16.5263 30.4834 15.3827 30.6277C15.1182 30.661 14.8919 30.6784 14.8797 30.6663C14.8542 30.6408 28.63 6.7883 28.6708 6.78738C28.7145 6.7864 29.4457 8.03036 29.6926 8.5259C30.5033 10.1527 31.0368 11.8431 31.2716 13.5291C31.3357 13.9892 31.3598 14.5092 31.3615 15.4662C31.3642 16.9477 31.2942 17.6022 31.0089 18.7638C30.4504 21.0378 29.1793 23.6289 27.6953 25.5183C27.4606 25.8173 27.3335 26.0182 27.3718 26.0302C28.2303 26.2996 28.9499 26.4246 29.6512 26.4261C30.7144 26.4285 31.4228 26.2365 32.5837 25.6312C32.9322 25.4495 33.2298 25.3134 33.2451 25.3286C33.2604 25.3439 33.2967 25.3125 33.3258 25.2588C33.3767 25.1652 33.4077 25.1719 34.0841 25.4239C34.4719 25.5684 34.9644 25.7496 35.1785 25.8265L35.5677 25.9664L35.4807 26.1313C35.4329 26.2221 34.2604 28.2574 32.8751 30.6543L30.3564 35.0123L29.8779 35.0062C29.6147 35.0028 29.184 34.9812 28.9208 34.9582V34.9582Z" fill="white"/>
<path d="M14.6598 27.0821L17.6163 21.968L18.0923 21.8027C18.3541 21.7118 18.5756 21.6448 18.5846 21.6538C18.605 21.6742 12.9631 31.4446 12.8841 31.5257C12.8292 31.5821 11.7663 32.1961 11.7236 32.1961C11.7124 32.1961 13.0337 29.8948 14.6598 27.0821Z" fill="white"/>
<path d="M4.13704 32.6579C1.98987 31.529 0.18065 30.5769 0.116549 30.542L0 30.4784L0.19036 30.2429C0.799303 29.4896 2.29781 28.0116 3.60812 26.8721C3.94058 26.583 4.24344 26.3177 4.28113 26.2827C4.33795 26.2299 4.26036 26.1129 3.82671 25.5975C3.29734 24.9682 2.84368 24.3604 2.50675 23.8289L2.32188 23.5372L9.11866 11.7783L15.9155 0.0193313L16.3355 0.00341659C17.4015 -0.0369651 19.2633 0.284867 20.6166 0.743444C21.5595 1.06294 22.8773 1.66182 23.7575 2.17084C24.5435 2.62542 25.9317 3.64818 26.3103 4.05175L26.4452 4.19552L24.3061 7.89372C23.1296 9.92773 22.0642 11.7693 21.9384 11.9861L21.7097 12.3804L21.4655 11.9839C20.7648 10.8467 19.6948 9.97014 18.3513 9.43269C16.541 8.70855 14.6801 8.79335 12.8936 9.68141C11.6639 10.2927 10.8331 11.0568 10.1543 12.2008C9.54281 13.2313 9.27798 14.2391 9.27633 15.5417C9.27456 16.9512 9.61889 18.0859 10.4055 19.2629C10.8156 19.8765 11.1972 20.2945 11.7116 20.6938C12.8728 21.595 13.9268 22.0099 15.3739 22.1354C15.717 22.1651 16.0042 22.1959 16.0121 22.2038C16.02 22.2117 14.5295 24.8085 12.6998 27.9745L9.37314 33.7308L8.70827 34.2214C8.34259 34.4912 8.04286 34.7116 8.04219 34.7111C8.04154 34.7107 6.28421 33.7867 4.13704 32.6579Z" fill="white"/>
<path d="M22.4479 14.7109C22.4287 14.5728 22.3846 14.3312 22.3498 14.174L22.2866 13.8881L24.791 9.55414C26.1685 7.17046 27.3167 5.19896 27.3427 5.17302C27.3721 5.14367 27.4774 5.22706 27.6215 5.39373L27.853 5.66162L25.2357 10.1865C23.7961 12.6752 22.5878 14.7678 22.5505 14.8367C22.4845 14.9587 22.4819 14.9555 22.4479 14.7109Z" fill="white"/>
<path d="M1.46827 21.9169L1.31537 21.5801L7.52375 10.8396L13.7321 0.0990272L13.9881 0.0670793C14.1289 0.0495097 14.2889 0.0428963 14.3437 0.0523864C14.4286 0.067097 13.6241 1.48669 8.88753 9.67992C5.83183 14.9656 2.94685 19.957 2.47645 20.772L1.62117 22.2538L1.46827 21.9169Z" fill="white"/>
<path d="M0.685637 19.7327C0.400105 18.7518 0.211859 17.4074 0.172773 16.07C0.104334 13.7282 0.486346 11.589 1.3274 9.60444C3.04357 5.5549 6.24067 2.48757 10.3582 0.940237C10.8367 0.760405 12.0531 0.387268 12.0784 0.412538C12.0881 0.422273 9.54782 4.83891 6.4333 10.2273L0.770513 20.0243L0.685637 19.7327Z" fill="white"/>
</svg>
